<mxfile host="app.diagrams.net" modified="2021-11-22T11:06:30.355Z" agent="5.0 (Macintosh; Intel Mac OS X 10_14_6) AppleWebKit/537.36 (KHTML, like Gecko) Chrome/96.0.4664.45 Safari/537.36" etag="ltkyP-DPQIos2Gt4EBhM" version="15.8.3" type="github">
  <diagram id="C5RBs43oDa-KdzZeNtuy" name="Page-1">
    <mxGraphModel dx="1307" dy="858" grid="1" gridSize="10" guides="1" tooltips="1" connect="1" arrows="1" fold="1" page="1" pageScale="1" pageWidth="1169" pageHeight="827" math="0" shadow="0">
      <root>
        <mxCell id="WIyWlLk6GJQsqaUBKTNV-0" />
        <mxCell id="WIyWlLk6GJQsqaUBKTNV-1" parent="WIyWlLk6GJQsqaUBKTNV-0" />
        <mxCell id="PvL9muBnpTTsTYWsvFAD-1" value="" style="edgeStyle=orthogonalEdgeStyle;rounded=0;orthogonalLoop=1;jettySize=auto;html=1;" edge="1" parent="WIyWlLk6GJQsqaUBKTNV-1" source="WIyWlLk6GJQsqaUBKTNV-3">
          <mxGeometry relative="1" as="geometry">
            <mxPoint x="176" y="60" as="targetPoint" />
          </mxGeometry>
        </mxCell>
        <mxCell id="WIyWlLk6GJQsqaUBKTNV-3" value="Get URL of all PDFs" style="rounded=1;whiteSpace=wrap;html=1;fontSize=12;glass=0;strokeWidth=1;shadow=0;" parent="WIyWlLk6GJQsqaUBKTNV-1" vertex="1">
          <mxGeometry x="16" y="40" width="120" height="40" as="geometry" />
        </mxCell>
        <mxCell id="PvL9muBnpTTsTYWsvFAD-3" value="" style="edgeStyle=orthogonalEdgeStyle;rounded=0;orthogonalLoop=1;jettySize=auto;html=1;" edge="1" parent="WIyWlLk6GJQsqaUBKTNV-1" source="PvL9muBnpTTsTYWsvFAD-0">
          <mxGeometry relative="1" as="geometry">
            <mxPoint x="356" y="60" as="targetPoint" />
          </mxGeometry>
        </mxCell>
        <mxCell id="PvL9muBnpTTsTYWsvFAD-0" value="&lt;font style=&quot;font-size: 11px&quot;&gt;Download files from Folketingstidende.dk&lt;/font&gt;" style="whiteSpace=wrap;html=1;rounded=1;shadow=0;strokeWidth=1;glass=0;" vertex="1" parent="WIyWlLk6GJQsqaUBKTNV-1">
          <mxGeometry x="176" y="40" width="120" height="40" as="geometry" />
        </mxCell>
        <mxCell id="PvL9muBnpTTsTYWsvFAD-43" value="" style="edgeStyle=orthogonalEdgeStyle;rounded=0;orthogonalLoop=1;jettySize=auto;html=1;fontSize=11;" edge="1" parent="WIyWlLk6GJQsqaUBKTNV-1" source="PvL9muBnpTTsTYWsvFAD-2" target="PvL9muBnpTTsTYWsvFAD-42">
          <mxGeometry relative="1" as="geometry" />
        </mxCell>
        <mxCell id="PvL9muBnpTTsTYWsvFAD-2" value="&lt;font style=&quot;font-size: 11px&quot;&gt;Convert each PDF to txt-document&lt;/font&gt;" style="whiteSpace=wrap;html=1;rounded=1;shadow=0;strokeWidth=1;glass=0;" vertex="1" parent="WIyWlLk6GJQsqaUBKTNV-1">
          <mxGeometry x="356" y="40" width="120" height="40" as="geometry" />
        </mxCell>
        <mxCell id="PvL9muBnpTTsTYWsvFAD-34" value="" style="edgeStyle=orthogonalEdgeStyle;rounded=0;orthogonalLoop=1;jettySize=auto;html=1;fontSize=11;exitX=0.5;exitY=1;exitDx=0;exitDy=0;" edge="1" parent="WIyWlLk6GJQsqaUBKTNV-1" source="PvL9muBnpTTsTYWsvFAD-42" target="PvL9muBnpTTsTYWsvFAD-6">
          <mxGeometry relative="1" as="geometry">
            <mxPoint x="591.9999999999998" y="120" as="sourcePoint" />
          </mxGeometry>
        </mxCell>
        <mxCell id="PvL9muBnpTTsTYWsvFAD-9" value="" style="edgeStyle=orthogonalEdgeStyle;rounded=0;orthogonalLoop=1;jettySize=auto;html=1;fontSize=11;" edge="1" parent="WIyWlLk6GJQsqaUBKTNV-1" source="PvL9muBnpTTsTYWsvFAD-6">
          <mxGeometry relative="1" as="geometry">
            <mxPoint x="702" y="205" as="targetPoint" />
          </mxGeometry>
        </mxCell>
        <mxCell id="PvL9muBnpTTsTYWsvFAD-12" value="" style="edgeStyle=orthogonalEdgeStyle;rounded=0;orthogonalLoop=1;jettySize=auto;html=1;fontSize=11;" edge="1" parent="WIyWlLk6GJQsqaUBKTNV-1" source="PvL9muBnpTTsTYWsvFAD-6">
          <mxGeometry relative="1" as="geometry">
            <mxPoint x="482" y="205" as="targetPoint" />
          </mxGeometry>
        </mxCell>
        <mxCell id="PvL9muBnpTTsTYWsvFAD-6" value="&lt;font style=&quot;font-size: 11px&quot;&gt;Any&lt;br&gt;newlines in the doc?&amp;nbsp;&lt;/font&gt;" style="rhombus;whiteSpace=wrap;html=1;" vertex="1" parent="WIyWlLk6GJQsqaUBKTNV-1">
          <mxGeometry x="547" y="160" width="90" height="90" as="geometry" />
        </mxCell>
        <mxCell id="PvL9muBnpTTsTYWsvFAD-10" value="Yes" style="text;html=1;align=center;verticalAlign=middle;resizable=0;points=[];autosize=1;strokeColor=none;fillColor=none;fontSize=11;" vertex="1" parent="WIyWlLk6GJQsqaUBKTNV-1">
          <mxGeometry x="648" y="183" width="30" height="20" as="geometry" />
        </mxCell>
        <mxCell id="PvL9muBnpTTsTYWsvFAD-13" value="No" style="text;html=1;align=center;verticalAlign=middle;resizable=0;points=[];autosize=1;strokeColor=none;fillColor=none;fontSize=11;" vertex="1" parent="WIyWlLk6GJQsqaUBKTNV-1">
          <mxGeometry x="506" y="183" width="30" height="20" as="geometry" />
        </mxCell>
        <mxCell id="PvL9muBnpTTsTYWsvFAD-17" value="" style="edgeStyle=orthogonalEdgeStyle;rounded=0;orthogonalLoop=1;jettySize=auto;html=1;fontSize=11;" edge="1" parent="WIyWlLk6GJQsqaUBKTNV-1" source="PvL9muBnpTTsTYWsvFAD-15" target="PvL9muBnpTTsTYWsvFAD-16">
          <mxGeometry relative="1" as="geometry" />
        </mxCell>
        <mxCell id="PvL9muBnpTTsTYWsvFAD-22" value="" style="edgeStyle=orthogonalEdgeStyle;rounded=0;orthogonalLoop=1;jettySize=auto;html=1;fontSize=11;" edge="1" parent="WIyWlLk6GJQsqaUBKTNV-1" source="PvL9muBnpTTsTYWsvFAD-15" target="PvL9muBnpTTsTYWsvFAD-21">
          <mxGeometry relative="1" as="geometry" />
        </mxCell>
        <mxCell id="PvL9muBnpTTsTYWsvFAD-15" value="&lt;meta charset=&quot;utf-8&quot;&gt;&lt;span style=&quot;color: rgb(0, 0, 0); font-family: helvetica; font-size: 11px; font-style: normal; font-weight: 400; letter-spacing: normal; text-align: center; text-indent: 0px; text-transform: none; word-spacing: 0px; background-color: rgb(248, 249, 250); display: inline; float: none;&quot;&gt;Is there a speaker name on current line?&lt;/span&gt;" style="rhombus;whiteSpace=wrap;html=1;fontSize=11;" vertex="1" parent="WIyWlLk6GJQsqaUBKTNV-1">
          <mxGeometry x="707" y="165" width="80" height="80" as="geometry" />
        </mxCell>
        <mxCell id="PvL9muBnpTTsTYWsvFAD-20" value="" style="edgeStyle=orthogonalEdgeStyle;rounded=0;orthogonalLoop=1;jettySize=auto;html=1;fontSize=11;entryX=0.5;entryY=0;entryDx=0;entryDy=0;" edge="1" parent="WIyWlLk6GJQsqaUBKTNV-1" source="PvL9muBnpTTsTYWsvFAD-16" target="PvL9muBnpTTsTYWsvFAD-25">
          <mxGeometry relative="1" as="geometry">
            <mxPoint x="1027" y="205" as="targetPoint" />
          </mxGeometry>
        </mxCell>
        <mxCell id="PvL9muBnpTTsTYWsvFAD-24" value="" style="edgeStyle=orthogonalEdgeStyle;rounded=0;orthogonalLoop=1;jettySize=auto;html=1;fontSize=11;" edge="1" parent="WIyWlLk6GJQsqaUBKTNV-1" source="PvL9muBnpTTsTYWsvFAD-16" target="PvL9muBnpTTsTYWsvFAD-23">
          <mxGeometry relative="1" as="geometry" />
        </mxCell>
        <mxCell id="PvL9muBnpTTsTYWsvFAD-16" value="&lt;span style=&quot;color: rgb(0 , 0 , 0) ; font-family: &amp;#34;helvetica&amp;#34; ; font-size: 11px ; font-style: normal ; font-weight: 400 ; letter-spacing: normal ; text-align: center ; text-indent: 0px ; text-transform: none ; word-spacing: 0px ; background-color: rgb(248 , 249 , 250) ; display: inline ; float: none&quot;&gt;Does other regex-rules match?&lt;/span&gt;" style="rhombus;whiteSpace=wrap;html=1;fontSize=11;" vertex="1" parent="WIyWlLk6GJQsqaUBKTNV-1">
          <mxGeometry x="867" y="165" width="80" height="80" as="geometry" />
        </mxCell>
        <mxCell id="PvL9muBnpTTsTYWsvFAD-18" value="No" style="text;html=1;align=center;verticalAlign=middle;resizable=0;points=[];autosize=1;strokeColor=none;fillColor=none;fontSize=11;" vertex="1" parent="WIyWlLk6GJQsqaUBKTNV-1">
          <mxGeometry x="802" y="180" width="30" height="20" as="geometry" />
        </mxCell>
        <mxCell id="PvL9muBnpTTsTYWsvFAD-21" value="Append the match to temp data structure" style="whiteSpace=wrap;html=1;fontSize=11;" vertex="1" parent="WIyWlLk6GJQsqaUBKTNV-1">
          <mxGeometry x="687" y="290" width="120" height="60" as="geometry" />
        </mxCell>
        <mxCell id="PvL9muBnpTTsTYWsvFAD-23" value="Append the match to temp data structure" style="whiteSpace=wrap;html=1;fontSize=11;" vertex="1" parent="WIyWlLk6GJQsqaUBKTNV-1">
          <mxGeometry x="847" y="290" width="120" height="60" as="geometry" />
        </mxCell>
        <mxCell id="PvL9muBnpTTsTYWsvFAD-25" value="Skip current line" style="whiteSpace=wrap;html=1;fontSize=11;" vertex="1" parent="WIyWlLk6GJQsqaUBKTNV-1">
          <mxGeometry x="1007" y="290" width="120" height="60" as="geometry" />
        </mxCell>
        <mxCell id="PvL9muBnpTTsTYWsvFAD-27" value="" style="endArrow=classic;html=1;rounded=0;fontSize=11;exitX=0.5;exitY=1;exitDx=0;exitDy=0;entryX=0.5;entryY=1;entryDx=0;entryDy=0;" edge="1" parent="WIyWlLk6GJQsqaUBKTNV-1" source="PvL9muBnpTTsTYWsvFAD-21" target="PvL9muBnpTTsTYWsvFAD-6">
          <mxGeometry width="50" height="50" relative="1" as="geometry">
            <mxPoint x="577" y="450" as="sourcePoint" />
            <mxPoint x="627" y="400" as="targetPoint" />
            <Array as="points">
              <mxPoint x="747" y="390" />
              <mxPoint x="592" y="390" />
            </Array>
          </mxGeometry>
        </mxCell>
        <mxCell id="PvL9muBnpTTsTYWsvFAD-28" value="" style="endArrow=classic;html=1;rounded=0;fontSize=11;exitX=0.5;exitY=1;exitDx=0;exitDy=0;entryX=0.5;entryY=1;entryDx=0;entryDy=0;" edge="1" parent="WIyWlLk6GJQsqaUBKTNV-1" source="PvL9muBnpTTsTYWsvFAD-23">
          <mxGeometry width="50" height="50" relative="1" as="geometry">
            <mxPoint x="747" y="350" as="sourcePoint" />
            <mxPoint x="592" y="250" as="targetPoint" />
            <Array as="points">
              <mxPoint x="907" y="390" />
              <mxPoint x="592" y="390" />
            </Array>
          </mxGeometry>
        </mxCell>
        <mxCell id="PvL9muBnpTTsTYWsvFAD-29" value="" style="endArrow=classic;html=1;rounded=0;fontSize=11;exitX=0.5;exitY=1;exitDx=0;exitDy=0;entryX=0.5;entryY=1;entryDx=0;entryDy=0;" edge="1" parent="WIyWlLk6GJQsqaUBKTNV-1" source="PvL9muBnpTTsTYWsvFAD-25">
          <mxGeometry width="50" height="50" relative="1" as="geometry">
            <mxPoint x="906" y="350" as="sourcePoint" />
            <mxPoint x="591" y="250" as="targetPoint" />
            <Array as="points">
              <mxPoint x="1067" y="390" />
              <mxPoint x="591" y="390" />
            </Array>
          </mxGeometry>
        </mxCell>
        <mxCell id="PvL9muBnpTTsTYWsvFAD-30" value="No" style="text;html=1;align=center;verticalAlign=middle;resizable=0;points=[];autosize=1;strokeColor=none;fillColor=none;fontSize=11;" vertex="1" parent="WIyWlLk6GJQsqaUBKTNV-1">
          <mxGeometry x="963" y="181" width="30" height="20" as="geometry" />
        </mxCell>
        <mxCell id="PvL9muBnpTTsTYWsvFAD-31" value="Yes" style="text;html=1;align=center;verticalAlign=middle;resizable=0;points=[];autosize=1;strokeColor=none;fillColor=none;fontSize=11;" vertex="1" parent="WIyWlLk6GJQsqaUBKTNV-1">
          <mxGeometry x="747" y="250" width="30" height="20" as="geometry" />
        </mxCell>
        <mxCell id="PvL9muBnpTTsTYWsvFAD-32" value="Yes" style="text;html=1;align=center;verticalAlign=middle;resizable=0;points=[];autosize=1;strokeColor=none;fillColor=none;fontSize=11;" vertex="1" parent="WIyWlLk6GJQsqaUBKTNV-1">
          <mxGeometry x="907" y="250" width="30" height="20" as="geometry" />
        </mxCell>
        <mxCell id="PvL9muBnpTTsTYWsvFAD-39" value="&lt;font style=&quot;font-size: 11px&quot;&gt;Combine data with metadata&lt;/font&gt;" style="whiteSpace=wrap;html=1;rounded=1;shadow=0;strokeWidth=1;glass=0;" vertex="1" parent="WIyWlLk6GJQsqaUBKTNV-1">
          <mxGeometry x="160" y="185" width="120" height="40" as="geometry" />
        </mxCell>
        <mxCell id="PvL9muBnpTTsTYWsvFAD-41" value="" style="edgeStyle=orthogonalEdgeStyle;rounded=0;orthogonalLoop=1;jettySize=auto;html=1;fontSize=11;" edge="1" parent="WIyWlLk6GJQsqaUBKTNV-1" source="PvL9muBnpTTsTYWsvFAD-40" target="PvL9muBnpTTsTYWsvFAD-39">
          <mxGeometry relative="1" as="geometry" />
        </mxCell>
        <mxCell id="PvL9muBnpTTsTYWsvFAD-40" value="&lt;font style=&quot;font-size: 11px&quot;&gt;Write delimited data to new document&lt;/font&gt;" style="whiteSpace=wrap;html=1;rounded=1;shadow=0;strokeWidth=1;glass=0;" vertex="1" parent="WIyWlLk6GJQsqaUBKTNV-1">
          <mxGeometry x="360" y="185" width="120" height="40" as="geometry" />
        </mxCell>
        <mxCell id="PvL9muBnpTTsTYWsvFAD-42" value="Segmentation:&lt;br&gt;for each txt document:" style="rounded=1;whiteSpace=wrap;html=1;fontSize=11;" vertex="1" parent="WIyWlLk6GJQsqaUBKTNV-1">
          <mxGeometry x="532" y="40" width="120" height="40" as="geometry" />
        </mxCell>
      </root>
    </mxGraphModel>
  </diagram>
</mxfile>
